Coordinates
version=1
nRows=13
nColumns=36
inDegrees=yes

Units are S.I. units (second, meters, Newtons, ...)
If the header above contains a line with 'inDegrees', this indicates whether rotational values are in degrees (yes) or radians (no).

endheader
time	pelvis_tilt	pelvis_list	pelvis_rotation	pelvis_tx	pelvis_ty	pelvis_tz	hip_flexion_r	hip_adduction_r	hip_rotation_r	knee_angle_r	knee_angle_r_beta	ankle_angle_r	subtalar_angle_r	mtp_angle_r	hip_flexion_l	hip_adduction_l	hip_rotation_l	knee_angle_l	knee_angle_l_beta	ankle_angle_l	subtalar_angle_l	mtp_angle_l	lumbar_extension	lumbar_bending	lumbar_rotation	arm_flex_r	arm_add_r	arm_rot_r	elbow_flex_r	pro_sup_r	arm_flex_l	arm_add_l	arm_rot_l	elbow_flex_l	pro_sup_l
      0.00000000	      1.18993242	     -1.47379074	      4.84672389	     -0.10039265	      1.03129575	     -0.19783122	     18.95804980	      1.47610267	     -2.24748455	      2.84497283	      0.04965414	      3.02069822	      5.05809435	     -4.32117154	    -11.05852364	      1.39582493	      8.20020630	     12.87343908	      0.22468390	     20.30817348	      1.67453417	     -4.32117154	     -7.88929762	      0.71444600	     -7.39462815	    -15.89621322	     -2.59697284	    -16.82177020	     45.35281413	    102.88759315	     17.07852107	    -23.34305830	      9.03192494	     70.79439602	     92.30050749
      0.01000000	      1.43697006	     -1.75268566	      5.03384040	     -0.08797348	      1.03074960	     -0.19692263	     18.43510281	      1.91168409	     -2.07088410	      3.48019804	      0.06074091	      1.80759347	      3.15221956	     -4.52534734	    -11.42125992	      0.94946198	      8.05887935	     14.06332898	      0.24545139	     20.22809844	      1.45627402	     -4.52534734	     -7.97170569	      1.27090861	     -7.68399009	    -15.75780727	     -2.71140669	    -16.71171376	     45.13243051	    103.54645931	     15.98529747	    -23.24113825	      8.48175440	     71.74259711	     93.39344162
      0.02000000	      1.69898716	     -2.00217935	      5.15360521	     -0.07555122	      1.03028853	     -0.19602305	     17.99457748	      2.27591612	     -2.27961769	      4.31923223	      0.07538482	      1.34824218	      2.86239010	     -4.53690058	    -11.86347151	      0.56511089	      8.14730376	     15.15108313	      0.26443629	     19.98117623	      1.29942110	     -4.53690058	     -8.06799832	      1.80646509	     -7.54393273	    -15.80242399	     -2.79187387	    -16.79144315	     45.03881231	    103.55980463	     15.47410616	    -23.03760744	      8.70371745	     72.03216139	     93.48953742
      0.03000000	      1.86025997	     -2.34925707	      5.39659843	     -0.06298319	      1.02986699	     -0.19494642	     17.56689361	      2.77965094	     -2.56312386	      4.89886591	      0.08550134	     -0.10222055	      1.08790245	     -4.67428010	    -11.90147623	     -0.02248068	      7.58211053	     16.72344812	      0.29187923	     20.01361592	      1.37224556	     -4.67428010	     -8.04461266	      2.40725054	     -8.01349285	    -15.63439937	     -2.76584986	    -16.94265568	     44.87680919	    103.82695955	     14.07792247	    -23.00657002	      8.00604589	     73.24537261	     94.17865036
      0.04000000	      2.03016424	     -2.66088691	      5.53073103	     -0.05040128	      1.02973740	     -0.19381361	     17.17706659	      3.23272352	     -2.88662927	      5.60033139	      0.09774422	     -1.01764671	      0.38352744	     -4.78481679	    -11.95412867	     -0.53158511	      7.19554692	     18.27416423	      0.31894433	     19.56261317	      1.31761595	     -4.78481679	     -8.02703517	      2.97015969	     -8.17118009	    -15.54521135	     -2.86503271	    -16.83446520	     44.64985196	    104.00258451	     12.99172476	    -22.85608992	      7.76669874	     73.89236328	     94.67859793
      0.05000000	      2.28529866	     -2.98955790	      5.58246062	     -0.03769985	      1.02999657	     -0.19255119	     16.70830901	      3.72864805	     -3.20694223	      6.36279713	      0.11105176	     -1.51336051	      0.07596198	     -4.81443694	    -12.02893316	     -1.05711531	      6.66212551	     19.92216801	      0.34770743	     18.72024594	      1.04691418	     -4.81443694	     -8.08872431	      3.55210843	     -8.04023685	    -15.57749958	     -2.95094254	    -16.88770609	     44.48032873	    104.02350278	     12.14192545	    -22.60179707	      7.88294212	     74.21170289	     94.83576588
      0.06000000	      2.45609289	     -3.34341518	      5.57031686	     -0.02500836	      1.03047505	     -0.19110702	     16.33465595	      4.26681091	     -3.38363642	      7.15340310	      0.12485044	     -1.98043082	     -0.29496529	     -4.85101003	    -11.84211440	     -1.61973637	      5.94928273	     21.83275664	      0.38105349	     17.62956955	      0.82294063	     -4.85101003	     -8.07180032	      4.13217811	     -7.97406345	    -15.51806814	     -3.01314472	    -16.93420343	     44.27725614	    104.04611883	     11.04786236	    -22.32273063	      7.81010571	     74.59650364	     95.02071633
      0.07000000	      2.71582390	     -3.67511653	      5.48744409	     -0.01232427	      1.03137204	     -0.18959141	     15.83397056	      4.80999347	     -3.37187871	      7.94502004	      0.13866676	     -2.08523530	     -0.60226254	     -4.87442116	    -11.62499597	     -2.15785166	      5.15770038	     23.94632642	      0.41794224	     16.29722982	      0.53752586	     -4.87442116	     -8.17549737	      4.68765227	     -7.78275878	    -15.46508592	     -3.12519216	    -16.94882822	     44.04850637	    104.05324774	      9.99328763	    -21.98004333	      7.78229401	     74.82786730	     95.14097057
      0.08000000	      2.91748529	     -4.04306305	      5.33921977	      0.00030924	      1.03247828	     -0.18791764	     15.39203522	      5.41352903	     -3.09585636	      8.79859195	      0.15356440	     -2.03909498	     -0.89687394	     -4.90003154	    -11.19100964	     -2.73744870	      4.28472047	     26.27142715	      0.45852290	     14.64004767	      0.20852805	     -4.90003154	     -8.21572570	      5.24301437	     -7.60585791	    -15.34738430	     -3.23731685	    -16.92058564	     43.80341076	    104.06299542	      8.81798143	    -21.62249775	      7.64227783	     75.04538863	     95.26591857
      0.09000000	      3.10242463	     -4.38467208	      5.13777255	      0.01286706	      1.03381014	     -0.18614067	     14.89561353	      6.00946153	     -2.67157081	      9.56447750	      0.16693162	     -1.74323502	     -1.22845491	     -4.92665272	    -10.54780493	     -3.31032500	      3.29210079	     28.87164502	      0.50390527	     12.68446951	     -0.26461799	     -4.92665272	     -8.27286121	      5.76742361	     -7.41358333	    -15.21096717	     -3.36833324	    -16.83855000	     43.52669145	    104.07479383	      7.54703980	    -21.21777711	      7.41918711	     75.22045564	     95.38941486
      0.10000000	      3.14844409	     -4.62168632	      4.89800342	      0.02521147	      1.03526130	     -0.18433433	     14.47272547	      6.51481500	     -1.86475916	     10.24774538	      0.17885690	     -1.55853234	     -1.93457378	     -5.05858185	     -9.60253873	     -3.67226674	      2.64410727	     31.65431125	      0.55247195	     10.15644237	     -1.53513880	     -5.05858185	     -8.23203417	      6.10705892	     -7.87398638	    -14.58521617	     -3.70899322	    -15.89325050	     42.80673945	    104.20439288	      5.41666492	    -20.76159168	      5.83562095	     75.95314508	     95.97218534
      0.11000000	      3.63677051	     -4.83373105	      4.76800677	      0.03729663	      1.03735107	     -0.18263745	     13.45963021	      6.97354515	     -1.42297466	     10.73730894	      0.18740139	     -1.12703298	     -1.89832759	     -5.07089514	     -8.94505469	     -4.13094235	      1.96437619	     34.69853473	      0.60560368	      8.31265879	     -1.72518727	     -5.07089514	     -8.72702675	      6.46872630	     -7.53623175	    -14.45177729	     -3.78268674	    -15.85237365	     42.67916048	    104.20275511	      4.52827899	    -20.33897162	      5.94516401	     75.78168238	     96.01357199
      0.12000000	      3.67429065	     -5.26348677	      4.60775194	      0.04955965	      1.03891149	     -0.18085420	     12.78695784	      7.64760121	     -1.03375717	     10.92906242	      0.19074812	     -0.38404782	     -1.93655361	     -5.09365843	     -7.52764446	     -4.91572661	      0.93550452	     38.07513023	      0.66453639	      5.56441762	     -2.48622471	     -5.09365843	     -8.62423813	      7.04136417	     -7.31264829	    -14.38346159	     -3.94998886	    -15.81607962	     42.52925381	    104.20415465	      3.24719213	    -19.85310152	      5.87075150	     75.65722259	     96.10355422
